<?xml version="1.0" standalone="no"?>
<!DOCTYPE svg PUBLIC "-//W3C//DTD SVG 20010904//EN"
 "http://www.w3.org/TR/2001/REC-SVG-20010904/DTD/svg10.dtd">
<svg version="1.0" xmlns="http://www.w3.org/2000/svg"
 width="1068.000000pt" height="1068.000000pt" viewBox="0 0 1068.000000 1068.000000"
 preserveAspectRatio="xMidYMid meet">
<metadata>
Created by potrace 1.14, written by Peter Selinger 2001-2017
</metadata>
<g transform="translate(0.000000,1068.000000) scale(0.100000,-0.100000)"
fill="#000000" stroke="none">
<path d="M9669 9141 c-29 -9 -41 -16 -304 -168 -164 -94 -396 -211 -570 -288
-86 -38 -258 -93 -310 -100 -27 -3 -60 -9 -73 -12 -58 -14 -152 37 -342 186
-120 95 -212 140 -422 209 -184 60 -215 68 -338 88 -100 16 -341 19 -435 5
-38 -5 -101 -13 -140 -16 -139 -14 -385 -94 -569 -187 -156 -78 -362 -235
-506 -385 -145 -150 -216 -252 -332 -479 -65 -125 -155 -382 -172 -490 -2 -16
-8 -49 -11 -74 -4 -25 -10 -54 -12 -65 -3 -11 -6 -100 -7 -197 0 -105 -5 -181
-11 -187 -17 -17 -58 -19 -99 -4 -22 7 -51 15 -65 17 -14 3 -45 7 -68 11 -24
4 -46 7 -50 7 -5 0 -17 4 -29 8 -11 5 -36 11 -55 14 -19 3 -43 8 -54 10 -11 3
-49 11 -85 19 -36 7 -87 24 -114 36 -75 35 -139 52 -147 40 -10 -17 -261 60
-399 123 -25 11 -70 32 -100 46 -30 13 -120 56 -199 93 -79 38 -145 69 -147
69 -29 0 -367 198 -544 319 -379 259 -715 582 -1016 978 -47 62 -90 115 -95
119 -12 7 -37 -22 -98 -113 -146 -217 -271 -541 -315 -817 -18 -109 -26 -345
-14 -436 15 -121 19 -156 23 -175 3 -11 7 -31 9 -45 25 -146 113 -395 202
-573 20 -38 34 -70 32 -72 -2 -1 -43 17 -93 41 -107 52 -146 56 -164 18 -29
-65 -34 -433 -7 -570 2 -12 7 -39 10 -60 4 -21 14 -68 22 -104 9 -36 17 -72
19 -80 12 -54 75 -221 114 -305 84 -177 192 -336 345 -504 42 -46 76 -92 76
-102 0 -11 0 -22 0 -26 0 -4 -15 -8 -33 -8 -42 0 -58 -11 -52 -38 2 -12 33
-115 68 -228 81 -262 146 -393 301 -604 66 -90 93 -121 196 -226 168 -169 314
-271 562 -392 92 -45 168 -85 168 -88 0 -3 -10 -11 -22 -17 -13 -6 -48 -26
-78 -43 -252 -146 -625 -269 -955 -315 -16 -2 -43 -6 -59 -9 -118 -20 -559
-28 -736 -13 -95 8 -336 42 -402 57 -24 6 -59 13 -78 16 -19 3 -55 11 -80 16
-25 6 -67 13 -93 16 l-49 5 25 -48 c25 -48 205 -236 292 -305 212 -168 703
-440 1035 -573 482 -194 1051 -323 1557 -353 233 -14 706 -7 824 12 13 2 55 6
92 10 37 3 76 8 85 10 9 1 44 6 77 9 33 4 67 9 75 11 8 2 33 6 55 10 72 10
338 66 440 91 55 14 108 28 118 30 11 2 80 22 155 44 273 82 615 228 792 337
544 336 683 427 790 516 65 54 322 291 337 311 11 14 67 76 125 138 58 62 118
127 133 143 14 17 48 53 74 80 25 28 78 93 116 145 39 52 73 100 78 105 104
136 103 134 452 850 46 94 134 276 197 405 73 150 128 277 150 350 34 109 121
450 132 515 2 17 9 55 15 85 6 30 13 66 16 80 3 14 7 36 10 50 2 14 7 52 10
85 5 63 14 157 20 215 20 188 23 276 15 465 -3 93 13 130 86 190 138 115 371
349 491 492 125 149 346 467 583 840 18 29 3 59 -29 56 -22 -3 -214 -87 -401
-176 -206 -98 -280 -128 -305 -125 -24 3 -23 8 89 248 92 200 124 281 171 438
58 196 75 273 59 271 -5 0 -21 -4 -35 -8z m-2699 -316 c0 -35 -33 -145 -44
-146 -6 0 -36 -1 -66 -2 -54 -2 -55 -3 -55 -32 0 -29 0 -29 58 -28 31 0 57 -3
57 -9 0 -20 -43 -184 -51 -192 -5 -5 -33 -9 -64 -7 l-55 2 0 -30 c0 -30 2 -31
43 -32 23 -1 48 -1 55 0 6 1 12 1 12 -1 0 -2 -14 -57 -30 -123 -16 -65 -26
-123 -24 -127 3 -4 14 -8 25 -8 20 0 34 25 44 78 3 15 14 61 24 102 l18 75 87
2 c86 1 88 1 82 -20 -6 -21 -44 -183 -51 -219 -3 -14 3 -18 25 -18 27 0 29 2
49 93 12 50 26 109 32 130 l10 38 62 -2 62 -3 0 30 c0 28 -1 29 -56 32 l-56 3
19 77 c10 42 19 84 21 92 6 34 18 40 72 37 43 -2 55 1 58 14 9 33 -12 51 -56
47 -22 -1 -42 2 -44 8 -2 6 3 35 10 65 11 42 19 54 33 53 17 -1 109 -9 205
-19 43 -4 119 -26 119 -34 0 -4 -13 -23 -30 -43 -122 -148 -150 -422 -61 -596
51 -99 164 -185 280 -212 112 -26 276 -8 372 41 36 18 40 23 34 47 -9 36 -8
36 -52 14 -92 -47 -270 -64 -363 -34 -101 33 -194 130 -232 242 -53 159 -5
388 103 489 31 28 40 27 125 -16 l72 -37 -45 -40 c-63 -56 -103 -144 -108
-241 -8 -155 53 -239 171 -236 64 1 85 10 138 60 21 20 36 30 32 23 -10 -18
18 -59 52 -75 53 -27 157 1 209 56 18 17 43 55 57 84 28 54 30 55 153 79 78
15 314 94 452 152 8 3 -6 -23 -31 -59 -25 -35 -89 -129 -143 -209 l-97 -145
32 -3 c24 -3 36 2 49 20 9 12 82 120 162 238 l146 215 124 62 c68 34 130 62
137 62 17 1 15 -17 -8 -67 -35 -77 -55 -98 -95 -100 -107 -7 -178 -109 -171
-241 2 -25 6 -56 10 -67 5 -18 -21 -48 -168 -188 -133 -127 -175 -174 -178
-196 -9 -58 -25 -58 327 16 33 6 241 71 380 118 72 24 131 43 132 42 5 -5
-162 -219 -250 -321 -97 -112 -319 -335 -334 -335 -4 0 -24 15 -43 33 -73 67
-171 103 -290 106 -99 2 -171 -12 -249 -51 -81 -39 -139 -92 -190 -172 -51
-82 -71 -150 -78 -266 -18 -314 172 -514 479 -504 42 1 86 5 98 9 21 7 22 6
15 -67 -8 -94 -33 -277 -39 -287 -3 -4 -8 -30 -12 -57 -5 -43 -38 -96 -264
-429 -141 -209 -253 -383 -248 -386 5 -3 20 -5 33 -5 21 2 58 52 226 301 217
323 220 327 214 299 -36 -159 -50 -208 -75 -259 -21 -42 -31 -80 -35 -125 -10
-149 -218 -662 -394 -975 -28 -49 -51 -85 -51 -78 0 21 -63 85 -97 99 -45 19
-110 17 -158 -5 -123 -56 -141 -215 -36 -330 37 -40 38 -45 9 -58 -44 -21
-116 -93 -138 -140 -17 -37 -21 -59 -17 -103 2 -30 7 -62 11 -71 5 -11 -15
-43 -66 -105 -40 -49 -75 -91 -78 -94 -3 -3 -27 -32 -54 -65 -58 -69 -220
-233 -320 -322 -67 -59 -71 -61 -127 -62 -213 -3 -385 -131 -454 -338 -20 -59
-26 -67 -94 -114 l-72 -51 -42 45 c-38 41 -133 97 -164 97 -12 0 -15 26 -15
155 0 135 2 145 20 145 31 0 81 -38 101 -78 28 -55 81 -66 81 -17 0 54 -91
136 -164 149 -37 7 -39 9 -40 52 -1 32 -4 37 -28 40 -27 2 -28 1 -28 -40 l0
-43 -52 -12 c-96 -22 -157 -95 -158 -189 0 -88 53 -153 156 -188 l54 -18 0
-123 0 -123 -49 -24 -48 -25 -21 22 c-12 12 -28 38 -36 58 -13 30 -20 36 -43
34 -25 -1 -28 -5 -25 -31 2 -16 14 -48 28 -72 l25 -42 -76 -35 c-41 -19 -77
-35 -80 -35 -3 0 -24 -9 -48 -20 -82 -38 -425 -154 -612 -206 -49 -14 -252
-58 -310 -68 -170 -29 -218 -36 -270 -41 -33 -4 -71 -8 -85 -11 -159 -25 -924
-25 -1058 1 -10 1 -46 6 -82 10 -36 3 -76 8 -90 10 -14 2 -45 7 -70 10 -25 3
-70 10 -100 16 -30 7 -66 13 -80 14 -93 10 -487 115 -651 175 l-86 31 31 127
32 127 70 0 c110 2 105 11 73 -123 -16 -64 -29 -120 -29 -124 0 -5 13 -8 28
-8 28 0 29 1 57 122 16 68 33 126 38 130 6 3 31 4 57 2 48 -3 68 7 64 34 -1 6
-2 16 -3 21 0 5 -21 8 -45 6 -65 -5 -67 0 -45 90 11 44 21 89 23 100 3 17 11
20 62 20 59 0 59 0 62 31 3 30 2 31 -37 29 -23 -1 -41 1 -41 4 0 3 44 20 98
37 144 47 270 98 427 175 291 142 619 359 587 391 -4 4 -38 12 -77 18 -219 34
-330 63 -484 124 -84 34 -107 47 -109 64 -3 17 2 22 19 22 70 0 153 54 181
118 24 54 21 152 -7 199 -19 32 -90 83 -145 103 -19 7 -39 17 -44 21 -7 6 -10
153 -7 272 l1 27 37 -15 c49 -20 73 -43 90 -82 11 -27 19 -33 44 -33 30 0 31
1 25 32 -3 18 -16 47 -29 65 -24 36 -106 83 -144 83 -23 0 -29 15 -24 68 1 18
-3 22 -29 22 -28 0 -30 -2 -30 -40 0 -24 -5 -42 -12 -44 -7 -2 -32 -9 -55 -15
-139 -38 -191 -213 -92 -312 23 -23 61 -46 98 -59 l61 -23 0 -168 0 -168 -29
9 c-62 17 -100 52 -126 113 -13 31 -20 37 -45 37 -33 0 -35 -5 -20 -44 14 -38
0 -32 -66 25 -67 58 -71 64 -70 99 1 21 -4 26 -33 30 -49 7 -74 44 -62 90 6
19 15 54 20 76 9 33 16 41 34 41 97 1 97 1 97 33 0 30 -1 30 -54 30 l-54 0 13
53 c22 82 27 110 29 142 1 25 -2 29 -19 27 -26 -5 -25 -4 -36 -49 -6 -21 -11
-42 -13 -48 -1 -5 -8 -36 -15 -67 l-12 -58 -85 0 c-99 0 -94 -9 -61 128 l23
93 -30 -3 c-28 -3 -32 -7 -42 -53 -6 -28 -13 -57 -16 -65 -5 -16 -103 175
-113 220 -11 52 -5 54 242 57 125 2 246 5 268 7 22 3 58 5 80 5 47 1 124 42
90 49 -50 9 -230 74 -306 110 -135 63 -291 165 -404 265 l-40 36 45 -13 c57
-17 117 -13 174 13 50 22 116 78 136 116 7 14 18 25 24 25 6 0 44 -33 86 -74
62 -62 81 -75 112 -77 20 -2 40 -1 43 3 3 3 -41 52 -99 109 l-105 104 100 153
c55 84 97 157 94 162 -3 4 -13 7 -23 5 -9 -2 -22 -4 -29 -4 -6 -1 -36 -40 -65
-87 -68 -110 -96 -155 -108 -174 -7 -12 -29 5 -108 82 l-99 98 40 26 c137 90
166 213 74 311 -39 41 -85 56 -152 51 -95 -8 -158 -74 -168 -176 -5 -50 24
-119 72 -171 17 -19 28 -38 24 -41 -5 -4 -28 -22 -53 -41 -59 -45 -77 -66
-101 -117 -22 -47 -27 -122 -10 -165 6 -16 11 -31 11 -33 0 -3 -25 23 -55 58
-40 47 -59 80 -74 128 -21 69 -42 97 -91 126 -29 18 -73 91 -120 202 l-23 52
42 60 42 60 -35 0 c-27 0 -40 -6 -53 -26 l-17 -26 -14 38 c-42 119 -80 382
-66 461 8 44 34 47 118 14 191 -75 597 -173 596 -144 -1 11 -56 71 -98 105
l-33 27 66 30 c67 30 73 38 55 71 -10 19 -11 19 -48 0 -20 -10 -58 -25 -85
-32 l-47 -12 -56 59 c-30 33 -63 71 -74 85 l-18 26 30 2 c38 3 84 27 113 58
28 30 31 30 38 -4 7 -36 46 -56 106 -56 144 3 243 144 243 348 0 198 -112 343
-302 392 -171 43 -360 -2 -477 -115 l-52 -50 -10 32 c-5 18 -14 57 -20 87 -6
30 -13 69 -17 85 -3 17 -8 112 -11 212 -6 201 -11 187 62 198 114 16 195 54
195 90 0 36 -12 37 -73 11 -30 -14 -72 -28 -93 -31 -22 -4 -48 -9 -58 -12 -17
-5 -18 -1 -12 48 9 73 44 191 62 209 12 12 14 11 14 -8 0 -13 11 -34 25 -47
20 -20 34 -25 77 -25 119 1 198 75 245 230 5 19 116 -90 143 -142 26 -49 62
-84 113 -109 65 -33 97 -67 97 -106 0 -32 1 -33 34 -28 27 5 40 0 67 -22 19
-15 36 -30 39 -33 9 -11 215 -167 290 -221 169 -121 359 -242 432 -276 72 -34
78 -39 78 -67 5 -354 8 -408 20 -416 16 -10 40 -2 41 14 1 6 3 88 5 181 1 94
3 180 3 192 1 22 2 22 74 -11 195 -90 204 -96 205 -124 0 -15 0 -77 1 -138 1
-102 3 -112 21 -117 24 -6 42 14 40 45 -1 13 -2 64 -1 115 l1 92 78 -33 c79
-34 266 -97 407 -139 l80 -23 3 -72 c3 -78 1 -80 -52 -58 -44 18 -93 70 -101
107 -6 25 -11 29 -42 29 -34 0 -34 -1 -28 -32 17 -73 74 -135 154 -163 42 -15
44 -15 61 -15 6 0 10 -25 10 -55 0 -54 0 -55 30 -55 30 0 30 1 30 55 l0 54 38
7 c54 10 106 39 136 76 14 18 31 38 36 45 7 8 18 10 33 4 12 -5 44 -12 71 -15
27 -4 53 -9 56 -11 4 -2 21 -33 38 -67 18 -35 43 -75 56 -90 113 -127 298
-171 516 -124 14 3 45 16 70 29 38 20 45 28 43 52 -1 15 -4 29 -5 31 -2 2 -26
-8 -54 -21 -135 -64 -290 -63 -420 3 -45 23 -114 93 -139 142 l-16 31 58 -6
c86 -9 165 -22 193 -33 14 -5 43 -8 65 -7 63 4 216 4 265 1 168 -10 284 195
246 434 -11 65 -54 147 -105 197 -47 47 -78 67 -158 98 l-51 20 45 130 c25 72
56 162 70 202 l25 72 51 0 c75 0 154 18 215 47 54 27 59 33 42 64 -10 18 -12
18 -63 -5 -54 -25 -201 -54 -213 -42 -4 4 0 15 9 25 10 10 17 22 17 26 0 9 99
156 106 156 2 0 16 -7 30 -16 19 -13 40 -15 91 -11 36 3 68 9 72 14 3 5 19 17
34 26 47 30 95 117 114 207 1 8 3 42 4 75 l1 60 58 42 c74 55 87 60 95 34 9
-30 66 -70 133 -95 l57 -21 0 -167 c0 -93 -3 -168 -8 -168 -16 0 -82 31 -100
48 -11 9 -28 35 -39 57 -25 49 -21 45 -52 51 -22 4 -26 1 -26 -21 0 -83 96
-173 200 -188 22 -4 25 -9 26 -48 2 -68 2 -69 29 -69 26 0 30 12 25 82 -1 24
4 28 42 38 130 33 180 92 180 211 0 99 -53 164 -170 207 l-47 18 -2 107 c-2
115 -2 113 57 134 39 14 52 7 70 -37 9 -21 19 -30 36 -30 13 0 27 0 32 0 13 0
9 24 -10 62 l-18 38 27 6 c16 3 34 7 41 10 7 2 40 6 75 10 34 3 63 7 64 8 1 1
38 3 83 4 68 3 80 1 80 -13z m198 -10 c12 -1 25 -5 28 -8 5 -5 -21 -115 -30
-124 -7 -7 -155 -8 -162 0 -3 3 -1 30 6 59 22 98 15 91 78 83 32 -4 67 -8 80
-10z m-794 -177 c-1 -46 -2 -86 -3 -90 -1 -3 -15 -1 -33 5 -39 15 -98 69 -98
90 0 12 105 74 130 76 3 1 5 -36 4 -81z m776 -32 c0 -6 -10 -53 -22 -103 l-22
-93 -89 0 c-79 0 -88 2 -83 18 7 23 28 105 30 117 1 6 6 24 10 41 l7 32 85 0
c55 0 84 -4 84 -12z m846 -52 c61 -43 64 -47 64 -87 0 -55 -22 -135 -51 -189
-63 -113 -204 -120 -239 -12 -32 95 9 254 77 302 61 42 73 41 149 -14z m-6033
-150 c31 -36 57 -71 57 -78 0 -27 -31 -128 -47 -154 -35 -55 -79 -82 -133 -82
-56 0 -68 50 -38 165 6 22 12 51 14 65 5 32 24 121 29 138 3 6 17 12 33 12 22
0 40 -14 85 -66z m3995 -4 c-19 -144 -99 -229 -193 -206 -14 4 -25 12 -25 20
0 17 204 239 226 246 0 0 -3 -27 -8 -60z m539 30 c77 -44 108 -122 77 -198
-21 -52 -43 -68 -116 -86 l-26 -6 0 160 c0 88 3 160 7 160 3 0 30 -14 58 -30z
m2691 -55 c-28 -47 -54 -85 -59 -85 -14 0 1 72 23 112 19 34 48 56 74 57 7 1
-11 -37 -38 -84z m-990 20 c19 -16 51 -37 72 -45 l39 -15 -19 -40 c-34 -72
-75 -105 -130 -105 -44 0 -57 8 -65 42 -6 23 11 128 32 201 5 20 8 19 71 -38z
m560 -984 c73 -22 162 -81 162 -107 0 -6 -18 -25 -39 -42 -31 -25 -40 -28 -45
-17 -3 9 -15 14 -28 11 -17 -2 -26 -13 -33 -39 l-10 -37 -28 35 c-69 87 -225
63 -304 -47 -64 -90 -85 -256 -43 -344 50 -102 188 -122 276 -39 43 41 44 41
44 17 0 -11 9 -27 21 -38 18 -16 19 -26 14 -84 -9 -90 -15 -110 -34 -111 -9 0
-25 -2 -36 -5 -42 -9 -152 -4 -203 10 -135 37 -230 141 -261 284 -35 168 14
350 124 458 43 42 131 91 181 100 16 3 31 7 33 10 12 12 156 2 209 -15z
m-3298 -27 c117 -59 181 -182 173 -334 -4 -77 -16 -122 -46 -175 -39 -70 -140
-103 -175 -57 -15 19 -11 75 13 177 43 182 55 248 50 254 -4 3 -17 6 -30 6
-19 1 -26 -6 -31 -30 -10 -47 -15 -49 -37 -13 -15 25 -20 48 -20 93 3 126 0
116 31 109 15 -4 47 -17 72 -30z m-3185 -125 c88 -45 148 -127 170 -229 38
-183 -41 -362 -161 -362 -69 0 -73 27 -33 219 17 81 33 157 35 168 2 11 6 32
10 48 5 25 3 27 -25 27 -25 0 -32 -5 -37 -27 -12 -57 -15 -60 -29 -32 -29 55
-113 81 -191 60 -82 -22 -164 -123 -180 -220 -4 -23 -10 -41 -14 -41 -7 0 -73
137 -92 192 -12 32 5 67 57 120 71 72 166 111 295 121 47 3 146 -19 195 -44z
m6397 -66 c43 -21 62 -58 60 -118 -2 -114 -60 -239 -123 -265 -112 -47 -188
29 -173 174 17 168 126 265 236 209z m-3303 -123 c-1 -32 -6 -65 -10 -72 -5
-8 -8 19 -6 64 1 42 6 74 10 71 4 -2 7 -31 6 -63z m-3233 -9 c58 -35 68 -128
28 -249 -47 -143 -190 -193 -254 -90 -18 28 -21 45 -17 118 5 120 51 204 127
233 32 12 86 6 116 -12z m2346 -203 c29 -6 57 -15 61 -19 16 -13 -23 -57 -64
-73 -65 -26 -69 -24 -69 44 0 33 4 60 9 60 5 0 33 -5 63 -12z m-2100 -939 c29
-15 61 -70 61 -104 0 -65 -40 -117 -130 -169 -15 -8 -68 46 -95 98 -59 114 51
232 164 175z m13 -464 l107 -105 -18 -28 c-40 -63 -99 -106 -162 -120 -169
-38 -266 170 -135 289 33 30 85 68 94 69 4 0 55 -47 114 -105z m5568 -976 c33
-18 55 -50 62 -91 9 -51 -25 -111 -89 -156 l-48 -34 -30 29 c-95 91 -101 201
-13 251 26 15 90 15 118 1z m-4943 -159 c0 -101 -3 -140 -12 -140 -27 0 -95
42 -111 69 -42 71 -16 159 56 192 69 31 67 34 67 -121z m-480 -75 c0 -2 -5
-27 -11 -55 l-11 -51 -30 38 c-52 66 -52 68 3 71 27 1 49 0 49 -3z m5340 -131
c0 -4 -15 -25 -33 -48 -18 -23 -55 -75 -82 -116 l-50 -74 -3 43 c-5 67 43 135
133 188 23 14 35 16 35 7z m-4759 -38 c75 -31 109 -81 109 -159 0 -72 -44
-122 -122 -141 -32 -7 -29 -24 -29 164 -1 131 0 150 5 150 2 0 19 -6 37 -14z
m2987 -1100 l-3 -137 -53 27 c-59 29 -83 65 -84 123 -1 67 33 107 112 134 8 2
19 1 23 -3 4 -3 6 -68 5 -144z m872 136 c0 -14 -340 -266 -348 -257 -2 2 6 22
18 46 30 58 110 141 163 168 72 37 167 62 167 43z m-4440 -298 c0 -6 -6 -32
-14 -58 -8 -25 -14 -49 -14 -51 -1 -40 -17 -85 -30 -86 -71 -5 -154 -4 -157 1
-2 4 4 43 15 87 10 44 20 86 22 94 5 22 12 24 97 24 52 0 81 -4 81 -11z m-235
-17 c-2 -7 -11 -43 -20 -82 -9 -38 -18 -77 -21 -85 -3 -12 -17 -15 -56 -15
-69 2 -77 -2 -74 -33 3 -24 7 -26 55 -28 28 -1 53 -3 55 -5 4 -5 -49 -217 -55
-224 -5 -5 -148 52 -161 64 -4 4 -3 22 3 41 10 35 13 97 5 135 -3 11 -5 23 -5
27 -1 4 -16 24 -33 44 -30 34 -136 94 -165 94 -7 0 -13 8 -13 18 0 14 8 18 38
18 41 0 213 13 240 19 9 1 45 6 79 10 34 3 75 10 90 14 32 9 44 6 38 -12z
m-687 -50 c9 -8 46 -26 81 -40 l65 -25 -1 -66 c-1 -36 -2 -75 -2 -87 -1 -19
-8 -17 -88 26 -204 109 -253 140 -254 160 0 11 -2 28 -4 38 -3 17 3 18 92 14
62 -4 100 -10 111 -20z m4660 -50 c46 -45 39 -64 -38 -104 -77 -39 -77 -39
-72 87 l4 80 36 -16 c20 -8 52 -29 70 -47z m-4362 -77 c43 -32 59 -74 55 -150
-3 -51 -13 -54 -85 -21 l-66 30 0 95 0 95 38 -17 c21 -9 47 -24 58 -32z"/>
<path d="M6715 7571 c-3 -2 -5 -22 -5 -43 0 -23 -5 -38 -12 -39 -64 -4 -129
-40 -165 -92 -24 -34 -28 -50 -28 -107 0 -46 5 -74 18 -93 25 -38 89 -82 142
-98 38 -11 45 -18 46 -39 0 -26 0 -260 -1 -294 0 -15 -5 -17 -27 -11 -50 12
-93 49 -119 101 -22 46 -27 50 -54 46 -26 -4 -29 -7 -24 -31 10 -43 52 -108
85 -132 17 -12 56 -29 87 -38 l56 -17 -1 -52 c-2 -51 -1 -52 28 -52 29 0 29 1
29 55 l0 54 38 7 c139 25 205 128 175 275 -10 49 -79 113 -152 139 l-61 23 0
149 0 150 27 -7 c43 -10 80 -43 99 -85 14 -31 22 -38 38 -35 12 2 26 4 33 4 9
1 9 9 1 34 -24 72 -85 124 -165 142 -31 6 -33 9 -33 49 0 38 -2 42 -25 42 -14
0 -28 -2 -30 -5z m-4 -158 c3 -59 -1 -256 -4 -260 -12 -11 -108 49 -122 77
-18 35 -19 96 -2 130 27 53 126 94 128 53z m147 -391 c48 -35 64 -65 64 -121
-1 -68 -24 -108 -75 -132 -79 -35 -77 -40 -77 141 l0 160 28 -12 c15 -6 42
-22 60 -36z"/>
<path d="M6066 7493 c-5 -17 -33 -138 -41 -177 -6 -29 -12 -31 -78 -31 l-62 0
0 -33 -1 -33 53 2 c29 1 55 0 59 -3 3 -3 0 -26 -7 -49 -6 -24 -13 -55 -15 -69
-13 -80 -17 -85 -70 -86 -82 -2 -81 -2 -79 -31 1 -27 3 -28 53 -28 28 -1 53
-3 56 -5 2 -3 -9 -57 -25 -120 -15 -63 -29 -118 -29 -122 0 -5 13 -8 28 -8 28
0 29 1 57 123 15 67 30 124 32 127 6 6 164 7 168 0 2 -3 -7 -51 -21 -106 -13
-54 -26 -109 -29 -121 -5 -20 -1 -23 24 -23 30 0 30 0 47 75 16 73 27 116 34
146 l10 35 60 -1 c55 -1 61 1 66 21 9 34 -1 42 -53 39 -27 -1 -51 -1 -54 1
-10 5 38 196 50 204 6 3 34 5 61 2 l50 -4 0 35 0 34 -50 -2 c-32 -2 -50 2 -50
9 0 6 9 49 20 96 25 108 25 120 1 120 -11 0 -23 -5 -26 -10 -6 -9 -42 -149
-49 -187 -4 -23 -17 -27 -92 -28 -49 -1 -78 3 -80 10 -3 7 6 55 19 108 13 54
21 99 19 102 -13 12 -51 4 -56 -12z m162 -277 c8 -9 -41 -196 -52 -197 -27 -4
-152 -5 -158 -2 -3 2 -2 18 2 36 5 17 11 43 13 57 12 69 30 109 51 112 27 4
138 -1 144 -6z"/>
<path d="M7222 7486 c-74 -26 -120 -99 -126 -197 -7 -121 56 -221 148 -234
136 -21 227 64 229 212 1 84 -15 134 -55 174 -50 50 -131 68 -196 45z m134
-71 c49 -32 70 -140 44 -219 -6 -19 -25 -47 -43 -62 -27 -22 -38 -25 -79 -22
-80 8 -122 67 -121 168 2 100 58 164 137 154 23 -3 50 -11 62 -19z"/>
<path d="M7791 7476 c-12 -6 -85 -105 -163 -221 -77 -115 -191 -284 -252 -375
-61 -90 -112 -168 -114 -172 -2 -5 12 -8 30 -8 34 0 37 5 274 358 131 196 241
359 244 362 3 3 13 17 22 31 16 26 16 27 -2 32 -10 2 -28 0 -39 -7z"/>
<path d="M2869 7441 c-1 -4 -2 -21 -3 -40 -1 -32 -4 -35 -48 -46 -103 -26
-162 -97 -162 -195 0 -93 50 -151 164 -191 l45 -15 0 -167 c0 -184 2 -181 -63
-148 -46 23 -66 45 -89 96 -14 32 -24 40 -45 41 -36 1 -37 -24 -3 -92 28 -55
81 -98 135 -108 67 -14 66 -13 65 -59 -2 -56 3 -67 31 -67 18 0 24 6 25 23 1
12 2 37 3 56 1 32 4 35 36 39 19 2 57 16 85 30 68 37 99 93 98 177 -1 103 -50
167 -159 207 l-61 22 0 148 c1 165 0 164 68 126 25 -14 45 -36 58 -63 18 -38
22 -41 51 -37 26 4 30 8 24 26 -27 86 -80 134 -165 150 -33 6 -36 10 -37 39 0
52 -1 53 -27 53 -14 0 -26 -2 -26 -5z m-4 -286 c0 -130 -1 -135 -20 -129 -80
25 -124 77 -121 144 1 26 10 59 20 74 21 33 96 70 111 55 6 -6 10 -68 10 -144z
m134 -250 c47 -24 74 -70 75 -129 1 -85 -40 -136 -120 -150 l-31 -6 0 159 0
159 24 -9 c13 -5 36 -15 52 -24z"/>
<path d="M7745 7115 c-70 -31 -112 -111 -113 -212 0 -67 28 -143 66 -176 48
-44 149 -55 209 -23 70 36 106 108 104 208 -1 69 -11 102 -45 152 -38 57 -150
83 -221 51z m135 -60 c95 -49 91 -254 -6 -300 -89 -42 -173 23 -179 140 -7
128 88 210 185 160z"/>
<path d="M3388 6712 c-15 -3 -18 -14 -17 -73 l1 -69 32 0 32 0 0 69 c-1 73 -7
82 -48 73z"/>
<path d="M3715 6640 l0 -70 33 0 32 0 0 70 0 70 -32 0 -33 0 0 -70z"/>
<path d="M5834 6116 c4 -41 -1 -50 -34 -54 -47 -7 -107 -40 -133 -73 -25 -33
-44 -89 -42 -119 1 -8 3 -30 3 -47 3 -49 71 -115 147 -142 l60 -22 0 -159 c0
-87 -3 -162 -7 -166 -25 -24 -120 47 -145 108 -13 32 -20 38 -45 38 -29 0 -30
-1 -23 -37 14 -78 92 -154 174 -168 47 -8 47 -8 46 -62 -1 -50 11 -65 46 -56
13 4 16 15 14 48 -1 24 1 48 4 53 3 5 29 15 58 21 104 25 164 110 157 223 -6
87 -56 146 -163 188 l-57 23 1 146 c1 139 2 146 20 143 38 -7 80 -39 102 -78
18 -31 28 -39 53 -41 35 -2 36 7 11 62 -24 54 -70 91 -135 110 l-53 16 2 39
c3 39 2 40 -31 40 -32 0 -33 -1 -30 -34z m1 -240 c0 -74 -3 -138 -7 -141 -11
-11 -91 33 -111 60 -48 66 -25 159 47 195 72 35 71 37 71 -114z m126 -262 c81
-45 108 -130 68 -217 -17 -38 -127 -92 -130 -64 -6 58 -2 307 4 307 5 0 31
-12 58 -26z"/>
<path d="M6461 6081 c-6 -4 -13 -16 -15 -27 -2 -10 -11 -46 -19 -79 -8 -33
-18 -72 -21 -87 -6 -26 -10 -27 -73 -30 -65 -3 -67 -4 -68 -30 -2 -28 -1 -28
57 -28 38 0 58 -4 58 -12 0 -6 -10 -53 -22 -103 l-21 -92 -58 -1 c-71 -1 -78
-4 -71 -37 4 -23 9 -25 58 -25 30 0 54 -2 54 -4 0 -2 -11 -51 -24 -108 -35
-147 -34 -140 -8 -144 26 -5 33 9 57 111 9 39 21 87 26 108 l10 37 84 0 c47 0
85 -2 85 -5 0 -3 -11 -51 -24 -108 -35 -149 -35 -140 -4 -142 26 -2 28 1 53
109 14 61 28 119 31 129 4 14 17 17 70 17 l64 0 0 30 c0 28 -3 30 -37 31 -21
1 -46 1 -55 0 -23 -3 -23 5 3 116 l21 92 62 3 c58 3 61 4 61 28 0 23 -4 25
-53 28 -28 2 -52 7 -52 12 0 5 11 53 25 107 13 53 23 98 22 99 -1 1 -13 4 -27
6 -24 3 -26 -1 -50 -107 l-26 -110 -88 -3 -88 -3 6 28 c4 15 8 37 10 48 3 11
11 48 19 82 14 57 14 62 -3 66 -10 2 -23 1 -29 -2z m142 -338 c-8 -32 -15 -62
-17 -68 -1 -5 -6 -26 -10 -46 l-8 -36 -84 -1 c-96 0 -92 -6 -68 95 18 78 22
95 23 106 1 4 41 7 90 7 l88 0 -14 -57z"/>
<path d="M8149 6069 c-59 -9 -90 -29 -125 -82 -23 -34 -28 -56 -32 -120 -6
-94 13 -152 64 -196 42 -37 68 -45 142 -39 68 5 108 30 143 91 32 56 34 192 5
247 -42 78 -110 112 -197 99z m97 -76 c80 -52 80 -236 0 -289 -32 -20 -100
-20 -131 0 -14 9 -34 35 -46 58 -18 34 -20 54 -16 106 6 72 26 108 75 133 37
19 82 16 118 -8z"/>
<path d="M4922 6050 c-159 -42 -280 -153 -333 -308 -69 -199 -27 -426 101
-552 130 -127 380 -158 564 -68 46 22 55 39 36 68 -8 13 -13 13 -42 -2 -88
-45 -233 -66 -322 -46 -217 48 -333 249 -289 501 39 229 209 369 438 362 222
-8 362 -160 349 -381 -7 -121 -52 -212 -120 -240 -46 -19 -70 -18 -95 7 -25
25 -24 39 35 312 14 65 26 120 26 123 0 2 -13 4 -29 4 -25 0 -31 -5 -37 -32
-4 -18 -7 -37 -5 -43 1 -5 -14 9 -33 32 -61 71 -158 77 -248 16 -125 -85 -167
-345 -72 -444 66 -69 202 -61 262 15 20 26 32 25 32 -4 0 -54 117 -77 193 -38
105 53 160 164 159 325 0 157 -65 276 -190 350 -100 59 -251 76 -380 43z m180
-282 c62 -23 75 -139 28 -261 -41 -109 -131 -163 -208 -123 -88 45 -78 269 16
359 46 43 97 51 164 25z"/>
<path d="M7297 6054 c-226 -54 -376 -251 -378 -496 -1 -253 111 -416 326 -472
110 -28 303 -7 388 42 28 17 34 36 18 61 -8 12 -14 12 -43 -2 -86 -41 -133
-51 -243 -50 -81 0 -130 13 -200 55 -105 63 -165 173 -172 318 -13 229 86 400
272 470 85 32 227 32 306 1 97 -37 170 -116 201 -216 31 -99 9 -265 -44 -329
-75 -91 -182 -84 -173 11 2 21 6 47 9 58 10 45 58 272 63 301 5 30 4 31 -25
26 -27 -4 -31 -9 -37 -44 l-7 -41 -19 31 c-38 60 -141 83 -219 49 -167 -71
-224 -389 -89 -490 34 -25 106 -33 154 -17 21 7 54 28 75 46 l37 34 6 -30 c12
-58 103 -77 187 -39 54 24 75 43 105 89 50 79 73 221 54 327 -27 142 -141 262
-289 304 -64 17 -195 19 -263 3z m171 -287 c60 -29 69 -125 26 -254 -29 -84
-73 -128 -140 -139 -50 -8 -87 10 -112 55 -42 74 -12 250 53 311 48 45 115 55
173 27z"/>
<path d="M3689 5968 c-1 -15 -1 -20 1 -325 l1 -233 30 0 29 0 1 168 c1 92 2
220 3 285 l1 117 -32 0 c-19 0 -33 -5 -34 -12z"/>
<path d="M4033 5698 c3 -156 6 -284 6 -285 1 -2 12 -3 26 -3 29 0 26 -33 30
323 l3 247 -35 0 -34 0 4 -282z"/>
<path d="M3103 5842 l-27 -113 -56 1 c-81 2 -80 3 -80 -30 l0 -30 60 0 c33 0
60 -3 60 -7 -1 -5 -11 -51 -23 -103 l-23 -95 -49 -2 c-28 -1 -57 -2 -65 -2
-11 -1 -16 -10 -15 -28 0 -27 2 -28 53 -29 29 -1 55 -4 57 -6 3 -2 0 -20 -5
-39 -8 -26 -50 -207 -50 -214 0 -1 13 0 29 3 29 4 30 7 56 121 15 64 31 120
36 125 7 8 157 11 165 4 2 -3 -40 -192 -52 -230 -4 -15 1 -18 25 -18 25 0 32
5 37 28 3 15 12 52 20 82 7 30 16 71 19 90 9 50 17 55 84 53 l61 -1 -3 31 c-2
31 -3 31 -49 28 -26 -1 -52 0 -57 3 -6 4 -4 27 4 59 8 28 19 73 26 100 l12 47
57 0 c56 0 58 1 62 30 4 28 3 30 -31 31 -20 1 -44 1 -53 0 -10 -1 -18 3 -18
10 0 10 37 179 45 205 2 6 -8 10 -23 10 -26 -2 -28 -7 -54 -106 -15 -58 -27
-108 -27 -111 -1 -3 -40 -6 -87 -7 l-86 -2 7 37 c12 63 14 76 28 134 l14 57
-28 -2 c-27 -1 -29 -4 -56 -114z m183 -204 c-4 -18 -9 -42 -12 -53 -2 -11 -10
-42 -16 -70 l-13 -50 -88 -1 c-77 -1 -87 1 -82 15 4 9 10 36 15 61 5 25 11 52
13 60 3 8 8 27 11 43 6 27 7 27 92 27 l87 0 -7 -32z"/>
<path d="M3689 5250 c-3 -107 -3 -106 31 -106 l30 0 0 73 0 73 -30 0 c-28 0
-30 -2 -31 -40z"/>
<path d="M4030 5217 l0 -74 28 3 c15 1 29 2 32 3 5 1 6 107 1 134 0 4 -14 7
-31 7 l-30 0 0 -73z"/>
<path d="M6253 4581 c-6 -3 -10 -21 -11 -40 -1 -39 -5 -44 -40 -49 -81 -11
-159 -89 -169 -170 -13 -112 44 -180 190 -226 9 -3 17 -16 18 -28 2 -87 1
-310 -3 -313 -2 -2 -27 6 -54 19 -53 25 -88 63 -99 109 -6 23 -13 27 -41 27
-32 0 -34 -2 -28 -27 23 -97 93 -164 189 -180 17 -3 32 -7 34 -9 2 -2 4 -26 4
-54 0 -48 1 -50 28 -50 28 0 29 1 29 54 l0 54 44 6 c67 10 133 58 158 113 28
64 22 155 -14 210 -24 36 -107 89 -170 107 -16 5 -18 21 -18 155 l0 150 28 -8
c47 -14 71 -33 94 -78 19 -35 28 -43 50 -43 38 0 37 32 -1 91 -29 46 -75 76
-136 89 -27 5 -30 10 -33 47 -3 41 -25 60 -49 44z m-12 -161 c3 -95 1 -252 -4
-257 -10 -9 -83 26 -105 51 -66 71 -30 195 63 219 37 9 45 7 46 -13z m134
-379 c47 -27 75 -76 75 -133 0 -82 -28 -120 -105 -143 l-45 -14 0 160 0 160
23 -6 c12 -4 35 -15 52 -24z"/>
<path d="M5634 4546 c-4 -9 1 -452 5 -544 1 -8 11 -12 28 -10 l27 3 4 281 3
281 -31 1 c-17 0 -33 -5 -36 -12z"/>
<path d="M3515 4504 c-91 -47 -129 -147 -105 -274 18 -92 75 -146 163 -153
154 -13 247 135 197 313 -28 104 -161 163 -255 114z m160 -74 c66 -62 58 -230
-13 -276 -33 -22 -103 -22 -135 -1 -80 52 -80 238 1 290 38 25 114 18 147 -13z"/>
<path d="M4875 4513 c-244 -40 -405 -204 -432 -441 -43 -380 212 -616 583
-538 123 25 173 61 146 104 -7 10 -21 7 -63 -12 -119 -52 -275 -56 -379 -9
-106 48 -177 135 -210 256 -16 59 -8 235 14 294 78 210 270 320 489 279 211
-39 321 -218 273 -445 -24 -116 -84 -181 -167 -181 -32 0 -57 29 -54 63 3 40
14 98 49 260 14 65 26 123 26 128 0 5 -13 9 -30 9 -27 0 -30 -4 -36 -39 l-6
-40 -25 30 c-35 41 -74 59 -130 59 -89 -1 -172 -59 -212 -150 -35 -81 -45
-177 -26 -254 35 -137 198 -173 303 -66 30 32 32 32 32 11 0 -12 11 -33 25
-46 47 -48 174 -26 237 41 107 116 125 361 35 500 -62 96 -157 159 -271 180
-38 7 -144 11 -171 7z m137 -316 c23 -33 28 -49 29 -89 3 -108 -51 -236 -113
-269 -34 -18 -87 -22 -119 -9 -46 20 -64 62 -64 155 0 67 5 89 28 136 34 70
55 89 114 104 40 11 54 10 83 -2 19 -7 38 -19 42 -26z"/>
<path d="M3950 4298 c-79 -117 -195 -288 -257 -380 -62 -92 -114 -172 -115
-179 -2 -8 8 -13 26 -14 25 0 36 10 81 75 62 91 433 644 458 683 l17 27 -33 0
c-32 0 -38 -7 -177 -212z"/>
<path d="M6755 4493 c-79 -27 -126 -103 -130 -208 -2 -74 17 -133 56 -175 36
-37 68 -51 124 -52 53 -1 82 8 124 40 82 61 101 230 37 329 -39 61 -137 92
-211 66z m123 -69 c41 -27 62 -74 62 -139 0 -128 -83 -200 -178 -154 -109 54
-100 268 13 306 35 12 71 8 103 -13z"/>
<path d="M7214 4343 c-55 -82 -171 -253 -258 -382 -87 -128 -160 -239 -163
-247 -3 -9 5 -12 28 -10 29 2 40 13 94 92 68 99 447 662 459 682 5 9 -2 12
-27 12 -33 0 -38 -6 -133 -147z"/>
<path d="M4072 4145 c-89 -27 -127 -90 -127 -215 0 -74 3 -91 27 -130 52 -89
164 -117 254 -65 130 76 127 331 -5 400 -40 20 -100 24 -149 10z m119 -65 c31
-17 60 -68 66 -117 12 -106 -42 -193 -119 -193 -84 0 -123 43 -133 146 -5 49
-2 67 17 104 36 70 104 94 169 60z"/>
<path d="M7287 4125 c-73 -25 -116 -89 -124 -185 -12 -126 53 -231 150 -245
95 -14 163 20 203 100 44 92 30 219 -33 290 -38 43 -133 63 -196 40z m119 -62
c94 -43 98 -250 5 -297 -103 -54 -201 38 -185 173 13 112 90 166 180 124z"/>
<path d="M5635 3860 c-3 -5 -5 -39 -4 -75 l2 -66 31 4 c31 3 31 4 32 63 0 32
-2 65 -4 72 -5 14 -48 16 -57 2z"/>
<path d="M5042 2853 c3 -265 4 -284 22 -289 10 -3 23 -1 28 4 7 7 12 113 14
285 l4 275 -36 4 -35 4 3 -283z"/>
<path d="M5386 2918 c2 -117 3 -245 3 -284 1 -71 1 -71 29 -69 31 1 29 -26 33
355 l2 205 -35 3 -34 3 2 -213z"/>
<path d="M3290 3089 c-258 -27 -434 -222 -444 -493 -13 -334 212 -541 539
-494 70 10 157 37 184 57 19 14 21 21 12 44 l-11 28 -37 -19 c-171 -86 -390
-64 -502 50 -135 137 -156 389 -47 571 18 30 42 64 52 74 109 111 293 152 451
101 126 -41 219 -164 226 -301 4 -62 -16 -174 -37 -215 -18 -36 -80 -91 -104
-93 -92 -8 -106 20 -77 156 9 39 24 111 35 162 10 50 22 102 25 115 5 21 2 24
-24 26 -28 2 -31 -1 -41 -40 l-12 -42 -19 32 c-41 64 -154 79 -238 31 -43 -24
-91 -86 -116 -149 -24 -61 -29 -186 -9 -244 42 -124 205 -150 299 -49 14 16
26 24 26 20 1 -4 2 -10 3 -14 20 -93 189 -88 270 8 105 125 116 367 23 504
-86 126 -249 192 -427 174z m99 -294 c62 -32 75 -140 31 -258 -27 -72 -54
-105 -103 -127 -96 -43 -168 15 -168 138 -1 184 121 309 240 247z"/>
<path d="M4048 3090 c-75 -22 -125 -94 -132 -194 -11 -141 69 -246 185 -246
79 0 156 55 180 128 20 61 15 162 -11 216 -39 81 -132 121 -222 96z m128 -74
c52 -35 73 -152 40 -231 -17 -40 -68 -75 -111 -75 -44 0 -94 35 -112 78 -21
47 -20 140 2 181 34 67 117 88 181 47z"/>
<path d="M4596 3070 c-8 -8 -80 -114 -161 -235 -82 -121 -195 -288 -252 -372
-56 -84 -103 -154 -103 -157 0 -4 15 -6 33 -6 31 0 38 6 78 68 24 37 142 212
262 389 119 178 217 324 217 325 0 11 -64 0 -74 -12z"/>
<path d="M4565 2716 c-75 -34 -113 -108 -111 -217 4 -163 100 -241 253 -204
48 11 97 71 118 142 20 72 -4 194 -48 241 -46 49 -146 67 -212 38z m135 -59
c35 -17 70 -91 70 -146 0 -103 -60 -174 -139 -165 -73 9 -112 61 -116 155 -3
66 25 132 65 154 31 18 87 19 120 2z"/>
<path d="M5059 2443 c-13 -3 -17 -18 -17 -73 l0 -70 31 0 32 0 0 69 c0 72 -6
82 -46 74z"/>
<path d="M5399 2441 c-11 -5 -15 -22 -15 -73 l1 -68 32 0 33 0 0 69 c0 57 -3
69 -18 73 -9 3 -24 2 -33 -1z"/>
</g>
</svg>
